<svg width="2088" height="264" viewBox="0 0 2088 264" fill="none" xmlns="http://www.w3.org/2000/svg">
<g id="Livello 1">
<path id="Vector" d="M528.68 202.89C512.013 202.89 497.563 199.28 485.33 192.06C473.25 184.988 463.42 174.638 456.98 162.21C450.313 149.543 446.98 134.877 446.98 118.21C446.98 101.543 450.313 86.8767 456.98 74.21C463.416 61.7788 473.247 51.4282 485.33 44.36C497.55 37.14 512 33.5267 528.68 33.5201C543.978 33.3824 558.962 37.8568 571.68 46.36C584.305 54.6041 594.082 66.5392 599.68 80.54L568.05 93.84C564.49 84.5067 559.157 77.45 552.05 72.67C544.853 67.8642 536.363 65.3634 527.71 65.5C514.377 65.5 503.26 70.11 494.36 79.33C485.46 88.55 481.013 101.503 481.02 118.19C481.02 134.857 485.467 147.807 494.36 157.04C503.253 166.273 514.37 170.887 527.71 170.88C536.363 171.017 544.853 168.516 552.05 163.71C559.17 158.93 564.503 151.87 568.05 142.53L599.73 155.87C593.881 169.855 584.01 181.788 571.37 190.156C558.729 198.523 543.889 202.949 528.73 202.87L528.68 202.89Z" fill="#FFFAF5" fill-opacity="0.933333"></path>
<path id="Vector_2" d="M698.43 202.89C681.97 202.89 667.463 199.39 654.91 192.39C642.533 185.584 632.397 175.333 625.73 162.88C618.83 150.213 615.383 135.427 615.39 118.52C615.39 101.4 618.837 86.5033 625.73 73.83C632.423 61.3533 642.549 51.0541 654.91 44.15C667.463 37.0434 681.97 33.4866 698.43 33.48C715.097 33.48 729.66 37.0367 742.12 44.15C754.424 51.1285 764.532 61.4089 771.3 73.83C778.3 86.4966 781.8 101.393 781.8 118.52C781.8 135.42 778.3 150.207 771.3 162.88C764.559 175.278 754.441 185.51 742.12 192.39C729.66 199.39 715.097 202.89 698.43 202.89ZM698.43 170.89C713.317 170.89 725.267 166.053 734.28 156.38C743.293 146.707 747.793 134.09 747.78 118.53C747.78 102.75 743.28 89.9666 734.28 80.1799C725.28 70.3933 713.33 65.5033 698.43 65.51C683.763 65.51 671.923 70.3433 662.91 80.01C653.897 89.6767 649.393 102.407 649.4 118.2C649.4 133.993 653.903 146.72 662.91 156.38C671.917 166.04 683.757 170.873 698.43 170.88V170.89Z" fill="#FFFAF5" fill-opacity="0.933333"></path>
<path id="Vector_3" d="M906.19 33.48C917.75 33.48 926.867 35.4267 933.54 39.32C939.928 42.9065 945.052 48.3795 948.21 54.99C951.437 61.9954 953.466 69.4929 954.21 77.17C955.103 85.587 955.547 94.0458 955.54 102.51V199.51H922.19V95.5101C922.19 83.9501 919.577 76.17 914.35 72.17C909.036 68.1341 902.511 66.019 895.84 66.17C888.407 66.2347 881.054 67.7074 874.17 70.5101C867.013 73.2914 860.364 77.2343 854.49 82.18C849.012 86.6968 844.479 92.2494 841.15 98.5201V79.84H846.49V199.57H813.15V36.81H838.49L845.49 65.5001L837.15 66.5001C843.103 59.626 849.943 53.5731 857.49 48.5001C864.694 43.6711 872.559 39.9088 880.84 37.33C889.046 34.7685 897.594 33.4703 906.19 33.48Z" fill="#FFFAF5" fill-opacity="0.933333"></path>
<path id="Vector_4" d="M983.9 67.5V36.8099H1076.9V67.5H983.9ZM1055.27 202.56C1041.03 202.56 1029.75 198.39 1021.42 190.05C1013.09 181.71 1008.92 168.76 1008.91 151.2V36.8099L1015.25 0.130005H1042.25V151.87C1042.25 158.103 1043.86 162.77 1047.08 165.87C1048.7 167.42 1050.61 168.631 1052.7 169.433C1054.79 170.235 1057.02 170.611 1059.26 170.54C1062.61 170.572 1065.95 170.348 1069.26 169.87C1071.85 169.494 1074.42 168.936 1076.93 168.2V199.2C1073.81 200.139 1070.63 200.917 1067.43 201.53C1063.42 202.256 1059.35 202.601 1055.27 202.56Z" fill="#FFFAF5" fill-opacity="0.933333"></path>
<path id="Vector_5" d="M1181.33 202.89C1165.54 202.89 1151.65 199.39 1139.64 192.39C1127.68 185.431 1117.96 175.19 1111.64 162.88C1104.97 150.213 1101.64 135.427 1101.64 118.52C1101.64 101.4 1104.97 86.5033 1111.64 73.83C1117.99 61.4955 1127.7 51.2068 1139.64 44.15C1151.64 37.0434 1165.54 33.4866 1181.33 33.48C1197.33 33.48 1211.33 37.0367 1223.33 44.15C1235.27 51.2098 1244.98 61.4977 1251.33 73.83C1258 86.4966 1261.33 101.393 1261.33 118.52C1261.33 120.08 1261.33 121.69 1261.17 123.36C1261.01 125.03 1260.89 126.52 1260.67 127.86H1133.27V99.1799H1236.66L1227.32 118.52C1227.32 101.627 1223.54 87.73 1215.98 76.83C1208.42 65.93 1196.86 60.4833 1181.3 60.49C1167.51 60.49 1156.51 64.8833 1148.3 73.6699C1140.09 82.4566 1135.97 93.9599 1135.96 108.18V125.52C1135.96 140.42 1139.96 152.26 1147.96 161.04C1155.96 169.82 1167.08 174.21 1181.31 174.21C1194.42 174.21 1204.54 171.433 1211.65 165.88C1218.99 160.078 1225.3 153.088 1230.33 145.2L1255.33 160.87C1247.77 174.87 1238.04 185.377 1226.15 192.39C1214.26 199.403 1199.32 202.903 1181.33 202.89Z" fill="#FFFAF5" fill-opacity="0.933333"></path>
<path id="Vector_6" d="M1385.76 33.48C1397.31 33.48 1406.42 35.4267 1413.1 39.32C1419.49 42.909 1424.61 48.3811 1427.78 54.99C1431.01 61.9937 1433.04 69.492 1433.78 77.17C1434.68 85.5866 1435.12 94.0456 1435.11 102.51V199.51H1401.76V95.5101C1401.76 83.9501 1399.15 76.17 1393.93 72.17C1388.61 68.137 1382.09 66.0222 1375.42 66.17C1367.98 66.2346 1360.63 67.7074 1353.74 70.5101C1346.58 73.2893 1339.94 77.2324 1334.07 82.18C1328.59 86.6942 1324.06 92.2474 1320.73 98.5201V79.84H1326.05V199.57H1292.7V36.81H1318.05L1325.05 65.5001L1316.71 66.5001C1322.67 59.6258 1329.51 53.5729 1337.06 48.5001C1344.26 43.669 1352.12 39.9065 1360.4 37.33C1368.61 34.7684 1377.16 33.4702 1385.76 33.48Z" fill="#FFFAF5" fill-opacity="0.933333"></path>
<path id="Vector_7" d="M1548.17 202.89C1531.71 202.89 1517.2 199.39 1504.65 192.39C1492.28 185.579 1482.14 175.329 1475.47 162.88C1468.57 150.213 1465.12 135.427 1465.13 118.52C1465.13 101.4 1468.58 86.5033 1475.47 73.83C1482.17 61.3577 1492.29 51.06 1504.65 44.15C1517.21 37.0434 1531.72 33.4866 1548.17 33.48C1564.84 33.48 1579.4 37.0367 1591.86 44.15C1604.17 51.1229 1614.28 61.4048 1621.04 73.83C1628.04 86.4966 1631.54 101.393 1631.54 118.52C1631.54 135.42 1628.04 150.207 1621.04 162.88C1614.3 175.282 1604.19 185.516 1591.86 192.39C1579.4 199.39 1564.84 202.89 1548.17 202.89ZM1548.17 170.89C1563.06 170.89 1575.01 166.053 1584.02 156.38C1593.03 146.707 1597.53 134.09 1597.53 118.53C1597.53 102.75 1593.03 89.9666 1584.02 80.1799C1575.01 70.3933 1563.06 65.5033 1548.17 65.51C1533.5 65.51 1521.66 70.3433 1512.65 80.01C1503.64 89.6767 1499.14 102.407 1499.15 118.2C1499.15 133.993 1503.65 146.72 1512.65 156.38C1521.65 166.04 1533.49 170.873 1548.17 170.88V170.89Z" fill="#FFFAF5" fill-opacity="0.933333"></path>
<path id="Vector_8" d="M1662.89 199.56V36.8099H1688.24L1695.24 65.5L1686.9 66.5C1692.5 59.7665 1698.87 53.7239 1705.9 48.5C1712.39 43.6976 1719.59 39.9296 1727.24 37.3299C1734.87 34.7584 1742.87 33.4611 1750.92 33.49C1762.48 33.49 1771.6 35.4366 1778.27 39.3299C1784.66 42.9164 1789.78 48.3895 1792.94 55C1796.17 62.0054 1798.2 69.5029 1798.94 77.1799C1799.83 85.5969 1800.28 94.0557 1800.27 102.52V199.52H1766.92V95.52C1766.92 83.96 1764.31 76.1799 1759.08 72.1799C1753.77 68.1441 1747.24 66.0289 1740.57 66.1799C1730.34 66.1799 1720.56 69.3499 1711.23 75.6899C1701.9 82.0299 1695.12 89.6433 1690.88 98.53V79.85H1696.22V199.58L1662.89 199.56ZM1870.99 199.56V95.5599C1870.99 83.9999 1868.38 76.22 1863.15 72.22C1857.84 68.1841 1851.31 66.069 1844.64 66.22C1834.41 66.22 1824.63 69.39 1815.3 75.73C1805.97 82.07 1799.19 89.6833 1794.95 98.5699L1790.95 66.5699C1796.55 59.8365 1802.92 53.7939 1809.95 48.5699C1816.44 43.7676 1823.64 39.9997 1831.29 37.4C1838.92 34.8285 1846.92 33.531 1854.97 33.5599C1866.53 33.5599 1875.65 35.5067 1882.32 39.4C1888.71 42.9865 1893.83 48.4594 1896.99 55.0699C1900.22 62.0753 1902.25 69.5729 1902.99 77.25C1903.88 85.667 1904.33 94.1256 1904.32 102.59V199.59L1870.99 199.56Z" fill="#FFFAF5" fill-opacity="0.933333"></path>
<path id="Vector_9" d="M1992.05 178.88L1927.68 36.8099H1962.68L2019.68 162.54L1992.05 178.88ZM1949.36 262.88L2052.05 36.8099H2087.05L1984.34 262.92L1949.36 262.88Z" fill="#FFFAF5" fill-opacity="0.933333"></path>
<path id="Vector_10" d="M345.57 107L238.57 214L209.57 185.06L316.57 78.0599L238.57 0.0599365L107.05 131.56L238.56 263.1L370.11 131.54L345.57 107ZM156.11 131.56L238.56 49.1L267.56 78.1L185.05 160.5L156.11 131.56Z" fill="#024089"></path>
<path id="Vector_11" d="M160.51 185.06L185.06 209.61L131.55 263.11L0 131.56L131.55 0L185.06 53.5L160.51 78.0499L131.55 49.1L49.11 131.56L131.55 214L160.51 185.06Z" fill="#FF9933"></path>
<path id="Vector_12" d="M209.614 185.053L185.063 160.502L160.513 185.053L185.063 209.604L209.614 185.053Z" fill="url(#paint0_linear_436_3)"></path>
</g>
<defs>
<linearGradient id="paint0_linear_436_3" x1="172.791" y1="197.34" x2="197.341" y2="172.79" gradientUnits="userSpaceOnUse">
<stop stop-color="#FF9933"></stop>
<stop offset="0.16" stop-color="#D38A42"></stop>
<stop offset="0.58" stop-color="#646268"></stop>
<stop offset="0.87" stop-color="#1D4A80"></stop>
<stop offset="1" stop-color="#024089"></stop>
</linearGradient>
</defs>
</svg>